<svg xmlns="http://www.w3.org/2000/svg" width="37.845" height="40.688" viewBox="0 0 37.845 40.688" fill="none">
  <path d="M 2.789 31.911 C 4.329 31.911 5.577 30.662 5.577 29.12 C 5.577 27.579 4.329 26.329 2.789 26.329 C 1.249 26.329 0 27.579 0 29.12 C 0 30.662 1.249 31.911 2.789 31.911 Z" fill="currentColor" fill-rule="nonzero"></path>
  <path d="M 35.341 26.344 C 35.247 26.335 35.153 26.329 35.056 26.329 C 33.516 26.329 32.267 27.579 32.267 29.12 C 32.267 30.564 33.365 31.754 34.771 31.896 C 34.865 31.905 34.959 31.911 35.056 31.911 C 36.596 31.911 37.845 30.661 37.845 29.12 C 37.845 27.676 36.748 26.487 35.341 26.344 Z" fill="currentColor" fill-rule="nonzero"></path>
  <path d="M 11.203 35.995 C 12.724 35.748 13.756 34.315 13.509 32.793 C 13.263 31.271 11.83 30.238 10.31 30.485 C 8.789 30.732 7.757 32.166 8.004 33.687 C 8.251 35.209 9.683 36.242 11.203 35.995 Z" fill="currentColor" fill-rule="nonzero"></path>
  <path d="M 27.087 36.031 C 28.627 36.031 29.876 34.782 29.876 33.24 C 29.876 31.699 28.627 30.449 27.087 30.449 C 25.547 30.449 24.298 31.699 24.298 33.24 C 24.298 34.782 25.547 36.031 27.087 36.031 Z" fill="currentColor" fill-rule="nonzero"></path>
  <path d="M 20.893 39.87 C 21.982 38.78 21.982 37.013 20.893 35.923 C 19.804 34.833 18.039 34.833 16.95 35.923 C 15.861 37.013 15.861 38.78 16.95 39.87 C 18.039 40.96 19.804 40.96 20.893 39.87 Z" fill="currentColor" fill-rule="nonzero"></path>
  <path d="M 4.762 22.321 C 5.851 21.231 5.851 19.463 4.762 18.373 C 3.673 17.283 1.907 17.283 0.818 18.373 C -0.271 19.463 -0.271 21.231 0.818 22.321 C 1.907 23.411 3.673 23.411 4.762 22.321 Z" fill="currentColor" fill-rule="nonzero"></path>
  <path d="M 35.056 17.555 C 34.959 17.555 34.865 17.561 34.771 17.57 C 33.365 17.713 32.267 18.902 32.267 20.346 C 32.267 21.887 33.516 23.137 35.056 23.137 C 35.153 23.137 35.247 23.131 35.341 23.122 C 36.748 22.98 37.845 21.79 37.845 20.346 C 37.845 18.805 36.596 17.555 35.056 17.555 Z" fill="currentColor" fill-rule="nonzero"></path>
  <path d="M 10.755 27.257 C 12.295 27.257 13.544 26.008 13.544 24.466 C 13.544 22.925 12.295 21.675 10.755 21.675 C 9.215 21.675 7.966 22.925 7.966 24.466 C 7.966 26.008 9.215 27.257 10.755 27.257 Z" fill="currentColor" fill-rule="nonzero"></path>
  <path d="M 27.087 27.257 C 28.627 27.257 29.876 26.008 29.876 24.466 C 29.876 22.925 28.627 21.675 27.087 21.675 C 25.547 21.675 24.298 22.925 24.298 24.466 C 24.298 26.008 25.547 27.257 27.087 27.257 Z" fill="currentColor" fill-rule="nonzero"></path>
  <path d="M 20.892 31.094 C 21.981 30.004 21.981 28.237 20.892 27.147 C 19.803 26.057 18.037 26.057 16.948 27.147 C 15.859 28.237 15.859 30.004 16.948 31.094 C 18.037 32.184 19.803 32.184 20.892 31.094 Z" fill="currentColor" fill-rule="nonzero"></path>
  <path d="M 4.761 13.54 C 5.85 12.449 5.85 10.682 4.761 9.592 C 3.672 8.502 1.906 8.502 0.817 9.592 C -0.272 10.682 -0.272 12.449 0.817 13.54 C 1.906 14.63 3.672 14.63 4.761 13.54 Z" fill="currentColor" fill-rule="nonzero"></path>
  <path d="M 35.056 8.775 C 34.959 8.775 34.865 8.781 34.771 8.79 C 33.365 8.933 32.267 10.122 32.267 11.566 C 32.267 13.107 33.516 14.357 35.056 14.357 C 35.153 14.357 35.247 14.351 35.341 14.342 C 36.748 14.199 37.845 13.01 37.845 11.566 C 37.845 10.025 36.596 8.775 35.056 8.775 Z" fill="currentColor" fill-rule="nonzero"></path>
  <path d="M 11.204 18.443 C 12.724 18.196 13.756 16.763 13.51 15.241 C 13.263 13.719 11.83 12.686 10.31 12.933 C 8.79 13.18 7.757 14.614 8.004 16.135 C 8.251 17.657 9.683 18.69 11.204 18.443 Z" fill="currentColor" fill-rule="nonzero"></path>
  <path d="M 27.087 18.48 C 28.627 18.48 29.876 17.231 29.876 15.689 C 29.876 14.148 28.627 12.898 27.087 12.898 C 25.547 12.898 24.298 14.148 24.298 15.689 C 24.298 17.231 25.547 18.48 27.087 18.48 Z" fill="currentColor" fill-rule="nonzero"></path>
  <path d="M 10.755 9.706 C 12.295 9.706 13.544 8.457 13.544 6.915 C 13.544 5.373 12.295 4.124 10.755 4.124 C 9.215 4.124 7.966 5.373 7.966 6.915 C 7.966 8.457 9.215 9.706 10.755 9.706 Z" fill="currentColor" fill-rule="nonzero"></path>
  <path d="M 27.087 9.706 C 28.627 9.706 29.876 8.457 29.876 6.915 C 29.876 5.373 28.627 4.124 27.087 4.124 C 25.547 4.124 24.298 5.373 24.298 6.915 C 24.298 8.457 25.547 9.706 27.087 9.706 Z" fill="currentColor" fill-rule="nonzero"></path>
  <path d="M 20.893 13.544 C 21.982 12.454 21.982 10.687 20.893 9.597 C 19.804 8.507 18.038 8.507 16.949 9.597 C 15.86 10.687 15.86 12.454 16.949 13.544 C 18.038 14.634 19.804 14.634 20.893 13.544 Z" fill="currentColor" fill-rule="nonzero"></path>
  <path d="M 20.894 4.765 C 21.983 3.675 21.983 1.908 20.894 0.818 C 19.805 -0.273 18.039 -0.273 16.95 0.818 C 15.861 1.908 15.861 3.675 16.95 4.765 C 18.039 5.855 19.805 5.855 20.894 4.765 Z" fill="currentColor" fill-rule="nonzero"></path>
</svg>